<svg width="123" height="101" viewBox="0 0 123 101" fill="none" xmlns="http://www.w3.org/2000/svg">
<g id="MetaMask">
<path id="Vector" d="M102.379 93.3859C101.511 92.8082 100.542 92.3893 99.6245 91.8828C99.0151 91.5855 98.4334 91.2346 97.8861 90.8343C97.0127 90.1142 97.1879 88.6961 98.1106 88.0774C99.4192 87.1985 101.596 87.6968 101.82 89.4846C101.822 89.5032 101.83 89.5206 101.844 89.5333C101.857 89.546 101.875 89.5531 101.894 89.553H103.871C103.882 89.5531 103.893 89.5508 103.903 89.5463C103.913 89.5418 103.923 89.5352 103.93 89.5269C103.938 89.5187 103.943 89.5089 103.947 89.4983C103.95 89.4877 103.951 89.4765 103.95 89.4654C103.843 88.2307 103.375 87.204 102.505 86.5469C101.699 85.9265 100.712 85.5879 99.6957 85.5833C94.4584 85.5833 93.982 91.1272 96.7992 92.8767C97.1277 93.0793 99.8901 94.4673 100.867 95.0669C101.845 95.6664 102.151 96.778 101.727 97.6568C101.341 98.4617 100.339 99.001 99.3371 98.949C98.242 98.8915 97.3933 98.2947 97.0949 97.3666C97.0465 97.161 97.0208 96.9508 97.0182 96.7396C97.0168 96.7195 97.0078 96.7007 96.9931 96.687C96.9783 96.6733 96.9589 96.6657 96.9388 96.6657H94.7869C94.7656 96.6664 94.7454 96.6754 94.7306 96.6907C94.7158 96.706 94.7075 96.7265 94.7075 96.7479C94.7075 98.3029 95.0963 99.1626 96.1421 99.9483C97.0587 100.644 98.1811 101.014 99.3316 101C102.258 101 103.786 99.3405 104.087 97.6212C104.388 95.9019 103.893 94.3879 102.379 93.3859Z" fill="#161616"/>
<path id="Vector_2" d="M9.1633 85.8487H7.17842C7.16172 85.8481 7.14533 85.8532 7.13191 85.8632C7.11848 85.8731 7.10882 85.8873 7.1045 85.9034L5.3359 91.7102C5.33146 91.7264 5.32182 91.7407 5.30846 91.7509C5.29511 91.7611 5.27878 91.7666 5.26198 91.7666C5.24519 91.7666 5.22886 91.7611 5.21551 91.7509C5.20215 91.7407 5.19251 91.7264 5.18807 91.7102L3.42221 85.9034C3.41695 85.8873 3.40667 85.8733 3.39287 85.8635C3.37908 85.8536 3.3625 85.8484 3.34555 85.8487H0.0793975C0.0588065 85.8487 0.0390176 85.8566 0.0242044 85.871C0.00939119 85.8853 0.000710032 85.9048 0 85.9253V100.761C0 100.782 0.00836664 100.803 0.0232561 100.817C0.0381456 100.832 0.0583406 100.841 0.0793975 100.841H2.23128C2.24158 100.841 2.25178 100.839 2.26126 100.835C2.27075 100.831 2.27932 100.825 2.28648 100.817C2.29363 100.81 2.29922 100.801 2.30291 100.791C2.30659 100.782 2.30831 100.772 2.30794 100.761V89.4899C2.30939 89.4719 2.3169 89.455 2.32924 89.4419C2.34158 89.4288 2.35802 89.4203 2.37585 89.4177C2.39368 89.4152 2.41184 89.4187 2.42736 89.4279C2.44288 89.437 2.45483 89.4512 2.46125 89.468L4.2408 95.3131L4.364 95.7211C4.36926 95.7372 4.37953 95.7512 4.39333 95.761C4.40712 95.7709 4.4237 95.7761 4.44065 95.7758H6.08331C6.10026 95.7761 6.11685 95.7709 6.13064 95.761C6.14443 95.7512 6.15471 95.7372 6.15997 95.7211L6.28317 95.3131L8.06272 89.468C8.06914 89.4512 8.08109 89.437 8.09661 89.4279C8.11213 89.4187 8.13029 89.4152 8.14812 89.4177C8.16595 89.4203 8.18239 89.4288 8.19473 89.4419C8.20707 89.455 8.21458 89.4719 8.21603 89.4899V100.761C8.21566 100.772 8.21737 100.782 8.22106 100.791C8.22475 100.801 8.23034 100.81 8.23749 100.817C8.24465 100.825 8.25322 100.831 8.26271 100.835C8.27219 100.839 8.28239 100.841 8.29269 100.841H10.4446C10.4656 100.841 10.4858 100.832 10.5007 100.817C10.5156 100.803 10.524 100.782 10.524 100.761V85.9253C10.5233 85.9048 10.5146 85.8853 10.4998 85.871C10.485 85.8566 10.4652 85.8487 10.4446 85.8487H9.1633Z" fill="#161616"/>
<path id="Vector_3" d="M69.5009 85.8489C69.4844 85.8492 69.4684 85.8546 69.4552 85.8645C69.4419 85.8743 69.4321 85.888 69.427 85.9036L67.6611 91.7104C67.6558 91.7262 67.6457 91.7399 67.6322 91.7497C67.6187 91.7594 67.6025 91.7646 67.5858 91.7646C67.5692 91.7646 67.5529 91.7594 67.5394 91.7497C67.5259 91.7399 67.5158 91.7262 67.5105 91.7104L65.7447 85.9036C65.7399 85.8877 65.7302 85.8738 65.7168 85.8639C65.7035 85.8541 65.6873 85.8488 65.6707 85.8489H62.4046C62.384 85.8489 62.3642 85.8569 62.3494 85.8712C62.3346 85.8855 62.3259 85.905 62.3252 85.9255V100.761C62.3252 100.783 62.3336 100.803 62.3484 100.818C62.3633 100.833 62.3835 100.841 62.4046 100.841H64.5565C64.5771 100.84 64.5966 100.831 64.6109 100.817C64.6252 100.802 64.6331 100.782 64.6331 100.761V89.4901C64.6346 89.4721 64.6421 89.4552 64.6544 89.4421C64.6668 89.429 64.6832 89.4205 64.701 89.4179C64.7189 89.4154 64.737 89.419 64.7526 89.4281C64.7681 89.4372 64.78 89.4514 64.7864 89.4682L66.566 95.3133L66.6892 95.7213C66.6943 95.7369 66.7042 95.7506 66.7174 95.7604C66.7307 95.7702 66.7466 95.7757 66.7631 95.776H68.4058C68.4225 95.7766 68.4389 95.7715 68.4523 95.7615C68.4657 95.7516 68.4754 95.7374 68.4797 95.7213L68.6056 95.3133L70.3824 89.4682C70.3889 89.4514 70.4008 89.4372 70.4163 89.4281C70.4318 89.419 70.45 89.4154 70.4678 89.4179C70.4857 89.4205 70.5021 89.429 70.5144 89.4421C70.5268 89.4552 70.5343 89.4721 70.5357 89.4901V100.761C70.5357 100.783 70.5441 100.803 70.559 100.818C70.5739 100.833 70.5941 100.841 70.6151 100.841H72.767C72.7876 100.84 72.8071 100.831 72.8214 100.817C72.8357 100.802 72.8437 100.782 72.8437 100.761V85.9255C72.843 85.9054 72.8347 85.8863 72.8205 85.8721C72.8062 85.8579 72.7871 85.8496 72.767 85.8489H69.5009Z" fill="#161616"/>
<path id="Vector_4" d="M41.8082 85.8489H31.6785C31.6579 85.8489 31.6381 85.8568 31.6233 85.8712C31.6085 85.8855 31.5998 85.905 31.5991 85.9255V87.7817C31.5998 87.8023 31.6085 87.8218 31.6233 87.8361C31.6381 87.8504 31.6579 87.8584 31.6785 87.8584H35.6017V100.761C35.6017 100.772 35.6038 100.782 35.6078 100.792C35.6118 100.801 35.6176 100.81 35.625 100.818C35.6324 100.825 35.6411 100.831 35.6507 100.835C35.6604 100.839 35.6707 100.841 35.6811 100.841H37.833C37.8536 100.84 37.8731 100.831 37.8874 100.817C37.9017 100.802 37.9097 100.782 37.9097 100.761V87.8584H41.8082C41.8288 87.8584 41.8486 87.8504 41.8634 87.8361C41.8783 87.8218 41.8869 87.8023 41.8876 87.7817V85.9255C41.8869 85.905 41.8783 85.8855 41.8634 85.8712C41.8486 85.8568 41.8288 85.8489 41.8082 85.8489Z" fill="#161616"/>
<path id="Vector_5" d="M54.4816 100.841H56.4363C56.4483 100.841 56.4601 100.838 56.4709 100.833C56.4816 100.828 56.4909 100.82 56.4981 100.81C56.5053 100.801 56.5101 100.789 56.5122 100.778C56.5143 100.766 56.5137 100.754 56.5102 100.742L52.4857 85.8571C52.481 85.8404 52.4709 85.8258 52.457 85.8154C52.4432 85.8051 52.4264 85.7995 52.4091 85.7996H49.6001C49.5828 85.7995 49.566 85.8051 49.5521 85.8154C49.5383 85.8258 49.5282 85.8404 49.5235 85.8571L45.4853 100.742C45.4824 100.754 45.4821 100.766 45.4846 100.778C45.4871 100.79 45.4923 100.801 45.4996 100.81C45.507 100.82 45.5165 100.827 45.5273 100.833C45.538 100.838 45.5499 100.841 45.5619 100.841H47.5167C47.5339 100.84 47.5504 100.834 47.5637 100.823C47.577 100.812 47.5865 100.797 47.5906 100.781L48.7651 96.4549C48.7693 96.4385 48.7789 96.424 48.7923 96.4136C48.8056 96.4032 48.8221 96.3975 48.839 96.3974H53.1592C53.176 96.398 53.1923 96.4038 53.2056 96.4141C53.2188 96.4245 53.2285 96.4388 53.2331 96.4549L54.4022 100.778C54.4055 100.796 54.4153 100.813 54.43 100.824C54.4446 100.836 54.4629 100.842 54.4816 100.841ZM49.351 94.2894L50.9225 88.4935C50.9277 88.4777 50.9379 88.464 50.9514 88.4543C50.9649 88.4446 50.9811 88.4393 50.9977 88.4393C51.0144 88.4393 51.0306 88.4446 51.0441 88.4543C51.0576 88.464 51.0678 88.4777 51.073 88.4935L52.6445 94.2894C52.6479 94.3008 52.6486 94.313 52.6465 94.3248C52.6444 94.3365 52.6396 94.3477 52.6324 94.3573C52.6252 94.3668 52.6159 94.3746 52.6051 94.3799C52.5944 94.3853 52.5826 94.388 52.5706 94.3879H49.4276C49.4156 94.3879 49.4038 94.3851 49.393 94.3798C49.3822 94.3745 49.3727 94.3668 49.3654 94.3573C49.358 94.3478 49.3528 94.3367 49.3504 94.325C49.3479 94.3132 49.3481 94.301 49.351 94.2894Z" fill="#161616"/>
<path id="Vector_6" d="M87.8029 100.841H89.7549C89.7669 100.841 89.7788 100.838 89.7895 100.833C89.8003 100.827 89.8098 100.82 89.8172 100.81C89.8245 100.801 89.8297 100.79 89.8322 100.778C89.8347 100.766 89.8344 100.754 89.8315 100.742L85.7933 85.8571C85.789 85.8402 85.779 85.8253 85.7651 85.8149C85.7512 85.8044 85.7341 85.799 85.7167 85.7996H82.9187C82.9014 85.7995 82.8845 85.8051 82.8707 85.8155C82.8569 85.8259 82.8468 85.8405 82.842 85.8571L78.8066 100.742C78.8037 100.754 78.8034 100.766 78.8058 100.777C78.8081 100.789 78.813 100.8 78.8201 100.809C78.8272 100.819 78.8363 100.826 78.8467 100.832C78.8572 100.837 78.8687 100.84 78.8805 100.841H80.8352C80.8526 100.841 80.8693 100.835 80.8827 100.824C80.8961 100.813 80.9055 100.798 80.9092 100.781L82.0837 96.455C82.0884 96.4383 82.0985 96.4237 82.1123 96.4134C82.1262 96.403 82.143 96.3974 82.1603 96.3975H86.4778C86.4947 96.3975 86.5112 96.4032 86.5245 96.4136C86.5379 96.424 86.5475 96.4386 86.5517 96.455L87.7262 100.781C87.7305 100.798 87.7403 100.813 87.7542 100.824C87.7681 100.835 87.7852 100.841 87.8029 100.841ZM82.6723 94.2894L84.2438 88.4936C84.249 88.4778 84.2592 88.464 84.2727 88.4543C84.2862 88.4446 84.3024 88.4394 84.319 88.4394C84.3357 88.4394 84.3519 88.4446 84.3654 88.4543C84.3789 88.464 84.389 88.4778 84.3943 88.4936L85.9658 94.2894C85.9687 94.3011 85.9689 94.3132 85.9664 94.325C85.964 94.3368 85.9588 94.3478 85.9514 94.3573C85.9441 94.3668 85.9346 94.3745 85.9238 94.3798C85.913 94.3851 85.9012 94.3879 85.8892 94.388H82.7462C82.7342 94.388 82.7224 94.3853 82.7117 94.38C82.7009 94.3747 82.6916 94.3669 82.6844 94.3573C82.6772 94.3477 82.6724 94.3366 82.6703 94.3248C82.6682 94.313 82.6689 94.3009 82.6723 94.2894Z" fill="#161616"/>
<path id="Vector_7" d="M19.2108 98.6479V94.043C19.2104 94.0328 19.2122 94.0227 19.2159 94.0132C19.2196 94.0037 19.2252 93.9951 19.2324 93.9879C19.2396 93.9807 19.2482 93.9751 19.2577 93.9714C19.2672 93.9677 19.2773 93.966 19.2875 93.9663H25.0039C25.0245 93.9656 25.044 93.957 25.0583 93.9422C25.0726 93.9273 25.0806 93.9075 25.0806 93.8869V92.0335C25.0806 92.0129 25.0726 91.9931 25.0583 91.9783C25.044 91.9635 25.0245 91.9548 25.0039 91.9541H19.2875C19.2671 91.9541 19.2476 91.946 19.2333 91.9316C19.2189 91.9173 19.2108 91.8978 19.2108 91.8774V87.9378C19.2105 87.9275 19.2122 87.9172 19.2158 87.9076C19.2195 87.898 19.2251 87.8892 19.2323 87.8818C19.2394 87.8744 19.248 87.8685 19.2575 87.8645C19.267 87.8605 19.2772 87.8584 19.2875 87.8584H25.7924C25.813 87.8584 25.8328 87.8504 25.8476 87.8361C25.8624 87.8218 25.8711 87.8023 25.8718 87.7817V85.9255C25.8711 85.905 25.8624 85.8855 25.8476 85.8712C25.8328 85.8568 25.813 85.8489 25.7924 85.8489H16.9795C16.9592 85.8489 16.9397 85.857 16.9253 85.8713C16.911 85.8857 16.9029 85.9052 16.9029 85.9255V100.761C16.9025 100.772 16.9042 100.782 16.9079 100.792C16.9116 100.801 16.9172 100.81 16.9243 100.817C16.9315 100.825 16.9401 100.831 16.9496 100.835C16.959 100.839 16.9692 100.841 16.9795 100.841H26.0717C26.0927 100.841 26.1129 100.833 26.1278 100.818C26.1427 100.803 26.151 100.783 26.151 100.761V98.804C26.151 98.7829 26.1427 98.7627 26.1278 98.7478C26.1129 98.7329 26.0927 98.7246 26.0717 98.7246H19.2875C19.2773 98.725 19.2672 98.7232 19.2577 98.7195C19.2482 98.7158 19.2396 98.7102 19.2324 98.703C19.2252 98.6958 19.2196 98.6872 19.2159 98.6777C19.2122 98.6682 19.2104 98.6581 19.2108 98.6479Z" fill="#161616"/>
<path id="Vector_8" d="M122.003 100.707L114.573 93.0273C114.566 93.0202 114.56 93.0116 114.556 93.0022C114.552 92.9928 114.55 92.9827 114.55 92.9725C114.55 92.9623 114.552 92.9522 114.556 92.9428C114.56 92.9334 114.566 92.9249 114.573 92.9178L121.256 85.994C121.267 85.9833 121.274 85.9695 121.277 85.9545C121.28 85.9395 121.279 85.9239 121.273 85.9097C121.267 85.8956 121.257 85.8835 121.244 85.8751C121.231 85.8667 121.216 85.8623 121.201 85.8626H118.466C118.455 85.8626 118.445 85.8648 118.435 85.869C118.425 85.8732 118.416 85.8794 118.408 85.8872L112.736 91.7761C112.725 91.7876 112.711 91.7956 112.695 91.799C112.68 91.8023 112.664 91.801 112.649 91.7951C112.634 91.7892 112.621 91.779 112.613 91.7659C112.604 91.7528 112.599 91.7373 112.599 91.7214V85.9255C112.599 85.9052 112.591 85.8857 112.576 85.8713C112.562 85.857 112.543 85.8489 112.522 85.8489H110.37C110.35 85.8489 110.33 85.8568 110.315 85.8712C110.3 85.8855 110.292 85.905 110.291 85.9255V100.761C110.291 100.783 110.299 100.803 110.314 100.818C110.329 100.833 110.349 100.841 110.37 100.841H112.522C112.533 100.841 112.543 100.839 112.552 100.835C112.562 100.831 112.57 100.825 112.577 100.817C112.585 100.81 112.59 100.801 112.594 100.792C112.598 100.782 112.599 100.772 112.599 100.761V94.2319C112.599 94.2166 112.604 94.2018 112.613 94.1892C112.622 94.1767 112.634 94.1669 112.648 94.1611C112.662 94.1553 112.678 94.1537 112.693 94.1566C112.708 94.1594 112.722 94.1666 112.733 94.1772L119.159 100.816C119.173 100.831 119.193 100.84 119.213 100.841H121.951C121.966 100.84 121.981 100.835 121.993 100.826C122.005 100.817 122.014 100.804 122.02 100.79C122.025 100.776 122.027 100.761 122.024 100.746C122.021 100.731 122.014 100.718 122.003 100.707Z" fill="#161616"/>
<path id="Vector_9" d="M92.9362 1L65.252 21.5387L70.3935 9.42136L92.9362 1Z" fill="#E17726" stroke="#E17726" stroke-width="0.712817" stroke-linecap="round" stroke-linejoin="round"/>
<path id="Vector_10" d="M29.0918 1L56.5242 21.7331L51.6346 9.42136L29.0918 1Z" fill="#E27625" stroke="#E27625" stroke-width="0.712817" stroke-linecap="round" stroke-linejoin="round"/>
<path id="Vector_11" d="M82.9842 48.6125L75.6196 59.8976L91.3782 64.2315L95.8818 48.8617L82.9842 48.6125Z" fill="#E27625" stroke="#E27625" stroke-width="0.712817" stroke-linecap="round" stroke-linejoin="round"/>
<path id="Vector_12" d="M26.1733 48.8617L30.6496 64.2315L46.4082 59.8976L39.0709 48.6125L26.1733 48.8617Z" fill="#E27625" stroke="#E27625" stroke-width="0.712817" stroke-linecap="round" stroke-linejoin="round"/>
<path id="Vector_13" d="M45.5452 29.5441L41.1538 36.1886L56.7755 36.884L56.2471 20.0659L45.5452 29.5441Z" fill="#E27625" stroke="#E27625" stroke-width="0.712817" stroke-linecap="round" stroke-linejoin="round"/>
<path id="Vector_14" d="M76.4823 29.5439L65.6133 19.8713L65.252 36.8838L80.8736 36.1884L76.4823 29.5439Z" fill="#E27625" stroke="#E27625" stroke-width="0.712817" stroke-linecap="round" stroke-linejoin="round"/>
<path id="Vector_15" d="M46.4077 59.8976L55.8311 55.3091L47.7136 48.9739L46.4077 59.8976Z" fill="#E27625" stroke="#E27625" stroke-width="0.712817" stroke-linecap="round" stroke-linejoin="round"/>
<path id="Vector_16" d="M66.1963 55.3091L75.6197 59.8976L74.3138 48.9739L66.1963 55.3091Z" fill="#E27625" stroke="#E27625" stroke-width="0.712817" stroke-linecap="round" stroke-linejoin="round"/>
<path id="Vector_17" d="M75.6197 59.8976L66.1963 55.3091L66.9464 61.4526L66.8643 64.0371L75.6197 59.8976Z" fill="#D5BFB2" stroke="#D5BFB2" stroke-width="0.712817" stroke-linecap="round" stroke-linejoin="round"/>
<path id="Vector_18" d="M46.4077 59.8976L55.1631 64.0371L55.1083 61.4526L55.8311 55.3091L46.4077 59.8976Z" fill="#D5BFB2" stroke="#D5BFB2" stroke-width="0.712817" stroke-linecap="round" stroke-linejoin="round"/>
<path id="Vector_19" d="M55.3304 44.9137L47.4922 42.6085L53.0225 40.0789L55.3304 44.9137Z" fill="#233447" stroke="#233447" stroke-width="0.712817" stroke-linecap="round" stroke-linejoin="round"/>
<path id="Vector_20" d="M66.6973 44.9137L69.0052 40.0789L74.5629 42.6085L66.6973 44.9137Z" fill="#233447" stroke="#233447" stroke-width="0.712817" stroke-linecap="round" stroke-linejoin="round"/>
<path id="Vector_21" d="M46.408 59.8976L47.7687 48.6125L39.0708 48.8617L46.408 59.8976Z" fill="#CC6228" stroke="#CC6228" stroke-width="0.712817" stroke-linecap="round" stroke-linejoin="round"/>
<path id="Vector_22" d="M74.2593 48.6125L75.6199 59.8976L82.9845 48.8617L74.2593 48.6125Z" fill="#CC6228" stroke="#CC6228" stroke-width="0.712817" stroke-linecap="round" stroke-linejoin="round"/>
<path id="Vector_23" d="M80.8736 36.1885L65.252 36.8839L66.6975 44.9137L69.0054 40.0788L74.5631 42.6085L80.8736 36.1885Z" fill="#CC6228" stroke="#CC6228" stroke-width="0.712817" stroke-linecap="round" stroke-linejoin="round"/>
<path id="Vector_24" d="M47.4917 42.6085L53.022 40.0788L55.33 44.9137L56.7755 36.8839L41.1538 36.1885L47.4917 42.6085Z" fill="#CC6228" stroke="#CC6228" stroke-width="0.712817" stroke-linecap="round" stroke-linejoin="round"/>
<path id="Vector_25" d="M41.1538 36.1885L47.7135 48.9738L47.4917 42.6085L41.1538 36.1885Z" fill="#E27525" stroke="#E27525" stroke-width="0.712817" stroke-linecap="round" stroke-linejoin="round"/>
<path id="Vector_26" d="M74.5631 42.6085L74.314 48.9738L80.8736 36.1885L74.5631 42.6085Z" fill="#E27525" stroke="#E27525" stroke-width="0.712817" stroke-linecap="round" stroke-linejoin="round"/>
<path id="Vector_27" d="M56.7756 36.8838L55.3301 44.9137L57.1644 54.3918L57.5531 41.9131L56.7756 36.8838Z" fill="#E27525" stroke="#E27525" stroke-width="0.712817" stroke-linecap="round" stroke-linejoin="round"/>
<path id="Vector_28" d="M65.2516 36.8838L64.5015 41.8857L64.8628 54.3918L66.6971 44.9137L65.2516 36.8838Z" fill="#E27525" stroke="#E27525" stroke-width="0.712817" stroke-linecap="round" stroke-linejoin="round"/>
<path id="Vector_29" d="M66.6976 44.9138L64.8633 54.392L66.1966 55.3091L74.314 48.9739L74.5632 42.6086L66.6976 44.9138Z" fill="#F5841F" stroke="#F5841F" stroke-width="0.712817" stroke-linecap="round" stroke-linejoin="round"/>
<path id="Vector_30" d="M47.4922 42.6086L47.7139 48.9739L55.8314 55.3091L57.1647 54.392L55.3304 44.9138L47.4922 42.6086Z" fill="#F5841F" stroke="#F5841F" stroke-width="0.712817" stroke-linecap="round" stroke-linejoin="round"/>
<path id="Vector_31" d="M66.8643 64.037L66.9464 61.4525L66.2538 60.842H55.7736L55.1083 61.4525L55.1631 64.037L46.4077 59.8975L49.4658 62.397L55.6915 66.7063H66.3359L72.5616 62.397L75.6197 59.8975L66.8643 64.037Z" fill="#C0AC9D" stroke="#C0AC9D" stroke-width="0.712817" stroke-linecap="round" stroke-linejoin="round"/>
<path id="Vector_32" d="M66.1963 55.309L64.8631 54.3918H57.1645L55.8312 55.309L55.1084 61.4525L55.7737 60.842H66.2538L66.9465 61.4525L66.1963 55.309Z" fill="#161616" stroke="#161616" stroke-width="0.712817" stroke-linecap="round" stroke-linejoin="round"/>
<path id="Vector_33" d="M94.1023 22.8747L96.4376 11.5349L92.936 1L66.1963 20.8461L76.4821 29.5439L91.0169 33.7984L94.2146 30.0449L92.8238 29.0457L95.0468 27.0142L93.3522 25.6809L95.5752 23.9863L94.1023 22.8747Z" fill="#763E1A" stroke="#763E1A" stroke-width="0.712817" stroke-linecap="round" stroke-linejoin="round"/>
<path id="Vector_34" d="M25.5898 11.5349L27.9525 22.8747L26.4522 23.9863L28.6753 25.6809L26.9806 27.0142L29.2037 29.0457L27.8129 30.0449L31.0106 33.7984L45.5454 29.5439L55.8312 20.8461L29.0914 1L25.5898 11.5349Z" fill="#763E1A" stroke="#763E1A" stroke-width="0.712817" stroke-linecap="round" stroke-linejoin="round"/>
<path id="Vector_35" d="M91.0171 33.7984L76.4823 29.5439L80.8736 36.1885L74.314 48.9739L82.9845 48.8616H95.8821L91.0171 33.7984Z" fill="#F5841F" stroke="#F5841F" stroke-width="0.712817" stroke-linecap="round" stroke-linejoin="round"/>
<path id="Vector_36" d="M45.5458 29.5439L31.011 33.7984L26.1733 48.8616H39.0709L47.7141 48.9739L41.1544 36.1885L45.5458 29.5439Z" fill="#F5841F" stroke="#F5841F" stroke-width="0.712817" stroke-linecap="round" stroke-linejoin="round"/>
<path id="Vector_37" d="M65.2519 36.8839L66.1964 20.8461L70.3934 9.42139H51.6343L55.8313 20.8461L56.7758 36.8839L57.1372 41.9405L57.1646 54.3919H64.8631L64.8905 41.9405L65.2519 36.8839Z" fill="#F5841F" stroke="#F5841F" stroke-width="0.712817" stroke-linecap="round" stroke-linejoin="round"/>
</g>
</svg>
