<svg width="24" height="24" viewBox="0 0 24 24" fill="none" xmlns="http://www.w3.org/2000/svg">
<g id="Person">
<g id="Group">
<path id="Vector" d="M7.5 12V12.5H8H8.5V13V13.5H9H15H15.5V13V12.5H16H16.5V12V11.5H17H17.5V11V5V4.5H17H16.5V4V3.5H16H15.5V3V2.5H15H9H8.5V3V3.5H8H7.5V4V4.5H7H6.5V5V11V11.5H7H7.5V12ZM10 8.5H9.5V7.5H10H10.5V7V6.5H11H11.5V6V5.5H12.5V6V6.5H13H13.5V7V7.5H14H14.5V8.5H14H13.5V9V9.5H13H12.5V10V10.5H11.5V10V9.5H11H10.5V9V8.5H10Z" fill="white" stroke="black"/>
<path id="Vector_2" d="M5.5 14.5H5H4.5V15V15.5H4H3.5V16V21V21.5H4H6H6.5V21V18.5H7H7.5V18V17.5H8H8.5V17V16.5H15.5V17V17.5H16H16.5V18V18.5H17H17.5V21V21.5H18H20H20.5V21V16V15.5H20H19.5V15V14.5H19H18.5V14V13.5H18H6H5.5V14V14.5Z" fill="white" stroke="black"/>
</g>
</g>
</svg>
